<?xml version="1.0" encoding="UTF-8"?><svg id="a" xmlns="http://www.w3.org/2000/svg" width="761.0644" height="83.1905" viewBox="0 0 761.0644 83.1905"><g><g><path d="m195.5224,55.2754c3.833,0,7.5166-1.6543,7.5166-5.8633s-5.9385-5.6377-8.6445-6.5391c-2.5557-.8271-10.0723-2.5557-10.0723-9.9971,0-6.4639,5.6377-9.8467,11.3506-9.8467s9.0947,1.8789,11.5752,4.1338l-2.7061,3.3828c-2.4805-2.1045-5.7129-3.2324-8.8691-3.2324-3.6836,0-6.2393,1.7285-6.2393,5.0361,0,3.2324,3.6084,4.7354,7.5166,6.0137,3.5332,1.2021,11.3496,3.0059,11.3496,10.5977,0,6.7646-5.6367,10.749-12.9277,10.749-5.7881,0-10.4482-2.4805-13.0791-6.2393l2.9316-3.5322c3.3828,3.833,6.915,5.3369,10.2979,5.3369Z" style="fill:#ff7e00;"/><path d="m241.5205,23.6309v35.3271h-5.4121l-.0752-5.6377c-1.5781,3.7588-6.0879,6.2393-11.124,6.2393-10.0723,0-12.5527-6.1641-12.5527-14.582v-21.3467h5.6377v20.9707c0,6.5391,2.1045,10.1475,8.6436,10.1475,6.3135,0,9.3955-5.4121,9.3955-11.5752v-19.543h5.4873Z" style="fill:#ff7e00;"/><path d="m278.124,37.6114v21.3467h-5.5625v-20.9707c0-6.54-2.1045-10.1475-8.6436-10.1475-6.3145,0-9.4717,5.1865-9.4717,11.2744v19.8438h-5.5615V23.7061h5.5615v5.7119h.2256c1.5791-3.7578,5.9385-6.3887,10.9746-6.3887,10.0723,0,12.4775,6.1631,12.4775,14.582Z" style="fill:#ff7e00;"/><path d="m295.2578,55.2754c3.833,0,7.5166-1.6543,7.5166-5.8633s-5.9385-5.6377-8.6445-6.5391c-2.5557-.8271-10.0723-2.5557-10.0723-9.9971,0-6.4639,5.6377-9.8467,11.3506-9.8467s9.0947,1.8789,11.5752,4.1338l-2.7061,3.3828c-2.4805-2.1045-5.7129-3.2324-8.8691-3.2324-3.6836,0-6.2393,1.7285-6.2393,5.0361,0,3.2324,3.6084,4.7354,7.5166,6.0137,3.5332,1.2021,11.3496,3.0059,11.3496,10.5977,0,6.7646-5.6367,10.749-12.9277,10.749-5.7881,0-10.4482-2.4805-13.0791-6.2393l2.9316-3.5322c3.3828,3.833,6.915,5.3369,10.2979,5.3369Z" style="fill:#ff7e00;"/><path d="m342.2334,37.6114v21.3467h-5.5615v-20.9707c0-6.54-2.1045-10.1475-8.6445-10.1475-6.3135,0-9.4707,5.1865-9.4707,11.2744v19.8438h-5.5615V7.0948h5.5615v22.3232h.2256c1.5791-3.7578,5.9385-6.3887,10.9746-6.3887,10.0723,0,12.4766,6.1631,12.4766,14.582Z" style="fill:#ff7e00;"/><path d="m352.9052,15.4375c-2.3311,0-3.9844-1.6533-3.9844-3.833s1.6533-3.834,3.9844-3.834c2.2549,0,3.9082,1.6543,3.9082,3.834-.0752,2.1797-1.6533,3.833-3.9082,3.833Zm-2.7812,8.2686h5.5615v35.252h-5.5615V23.7061Z" style="fill:#ff7e00;"/><path d="m392.8164,37.6114v21.3467h-5.5625v-20.9707c0-6.54-2.1045-10.1475-8.6436-10.1475-6.3145,0-9.4707,5.1865-9.4707,11.2744v19.8438h-5.5625V23.7061h5.5625v5.7119h.2246c1.5791-3.7578,5.9385-6.3887,10.9746-6.3887,10.0723,0,12.4775,6.1631,12.4775,14.582Z" style="fill:#ff7e00;"/><path d="m414.9873,59.71c-10.373,0-17.3633-7.1406-17.3633-18.4912,0-9.9961,6.8398-18.1895,17.3633-18.1895,9.6963,0,16.3857,6.9902,16.3857,16.6865,0,1.2773-.2256,2.9316-.2256,2.9316h-27.8115c.0752,7.291,5.1113,12.4023,12.6279,12.4023,6.915,0,11.876-4.4355,11.876-4.4355l2.4053,3.3076c-3.2314,3.834-8.3428,5.7881-15.2578,5.7881Zm-.2256-32.0205c-7.0654-.0752-10.8994,5.2617-11.3506,10.749h22.3242c0-4.9609-3.2324-10.6738-10.9736-10.749Z" style="fill:#ff7e00;"/></g><g><path d="m139.5136,58.9581h-12.3359l-4.9883-20.918-4.9336,20.918h-12.3359l-10.459-37.0078h12.6035l4.5596,20.6494,4.5586-20.6494h12.0684l4.5586,20.6494,4.5586-20.6494h12.6045l-10.459,37.0078Z" style="fill:#241f20;"/><path d="m164.9941,47.4268h-3.9697v11.5312h-12.1211V21.9502h16.0908c8.3662,0,14.4814,3.7539,14.4814,12.7646,0,8.957-6.168,12.7119-14.4814,12.7119Zm-2.0381-16.3584h-1.9844v7.2402h1.9844c2.5205,0,4.29-.751,4.29-3.5938,0-2.7891-1.8232-3.6465-4.29-3.6465Z" style="fill:#241f20;"/></g></g><path d="m81.4534,27.173c-2.9463-11.8149-12.7832-17.6156-23.6171-20.2376.7403-.3566,1.0826-1.5805.1662-2.1867-17.9174-11.8516-38.758.4215-50.327,15.5235-12.1449,15.8532-8.8675,35.6194,2.7726,50.6828,4.6658,6.0382,11.5159,10.9929,19.2208,12.0096,6.8815.9074,13.3945-.9937,19.2619-4.3481,1.588-.3854,3.134-.8602,4.6122-1.4243,8.0725-.3174,15.891-2.6871,20.7476-8.8034,8.4799-10.6796,10.3812-28.3088,7.1628-41.2157ZM30.607,4.8545c8.6746-4.1167,17.8297-3.3731,25.8192,1.7584-.8999-.194-1.8044-.3669-2.7111-.5208-7.8259-2.6879-16.8218-2.7677-24.9435-.3151.6098-.3146,1.2196-.6303,1.8355-.9225Zm22.173,3.4416c1.9506.6965,3.8427,1.5447,5.6282,2.5833,2.7971,1.6272,5.0703,3.6075,6.9025,5.8455-10.0058-6.6519-23.194-8.0849-34.353-3.3567-3.8754,1.6421-7.3211,3.875-10.3005,6.5483-1.7512.9138-3.4128,1.9831-4.9478,3.2206.0227-.0957.0417-.1934.065-.2888,3.9737-16.2517,23.1056-16.7281,37.0056-14.5521Zm20.8149,20.6031c4.3301,8.3776,2.9597,18.7653-1.7584,27.6549,2.8931-9.0422,3.2426-19.361,1.7584-27.6549Zm-3.3225,23.0787c-1.3531,6.2572-4.0055,12.2518-8.2726,16.8092-1.1821.9903-2.4152,1.8985-3.6911,2.7127,1.7948-1.8414,3.3432-3.8687,4.5724-6.1386.14-.1755.2877-.3457.4212-.5255,4.1927-5.6471,5.9769-12.5766,6.1019-19.5388.118-6.5781-1.6639-13.7463-5.7819-18.9797-4.5662-5.8035-11.6056-8.4024-18.6802-9.7128-5.1381-.9518-10.5428-.8932-15.6539.2199.6757-.3588,1.3633-.7031,2.0696-1.0232,12.5-5.6655,26.9285-2.4777,36.9911,6.4122.2282.2016.445.4085.6624.6152,3.826,8.7698,3.3205,19.6246,1.261,29.1495Zm-3.6442-13.1997c-.0024.0034-.0043.0072-.0066.0106-.5642-2.0091-1.2965-3.9496-2.1775-5.7623-1.1573-2.3814-2.657-4.4851-4.4079-6.2944-.3942-.4557-.8232-.8789-1.3045-1.2488-3.128-2.7881-6.9068-4.73-10.9424-5.7039-.7847-.3681-1.593-.6896-2.4213-.968,5.1797.9821,10.0041,3.042,13.7323,6.1732,4.0236,3.3796,6.4926,8.354,7.528,13.7935Zm-34.1839-20.2192c-2.5174.8014-4.7728,2.1028-6.7665,3.7669-1.9617.4501-3.9042.9625-5.7352,1.7878-.0675.0304-.1294.0652-.1957.0965.8243-.9079,1.7122-1.7626,2.6367-2.5836,3.0959-1.5128,6.5173-2.5441,10.0608-3.0676Zm-8.3254,54.6274c.0152.0314.0345.0605.0491.0921-.1585-.0904-.3215-.1775-.4756-.271.1402.0639.2854.1169.4265.1788Zm-7.5665-57.8133c-1.3218,1.9375-2.3798,4.1989-3.1072,6.833-.3466,1.2549-.6144,2.5414-.831,3.8465-1.6444,1.8071-3.0732,3.8574-4.2172,6.1687-.941,1.9014-1.6168,3.9018-2.0566,5.9505.5885-8.5351,4.1153-16.8616,10.212-22.7988Zm21.2342,65.0257c-14.6541,3.0683-25.417-8.8824-31.5116-20.5952-5.3338-10.2509-5.1053-21.3118-.6784-31.0592-2.579,8.7123-2.1006,18.4733,1.2551,26.6915,1.9335,4.7353,4.8212,8.7703,8.3608,11.9863.4871.9252,1.0363,1.8237,1.6622,2.6866,5.0863,7.0132,14.2705,9.8933,23.4535,9.6496-.8494.2471-1.6983.4638-2.5418.6403Zm42.0964-34.2995c-.9043,7.8775-3.3844,16.4568-8.8573,22.4039-2.8582,3.1064-6.8642,4.6445-11.0694,5.3874.4256-.2904.8411-.5881,1.2393-.8974.9086-.7057,1.759-1.4809,2.5653-2.3046,13.9408-11.8178,20.3423-34.4769,7.8776-48.536-2.0049-4.7245-5.1325-8.514-8.9679-11.382,6.4916,2.477,12.0469,6.7023,15.1513,13.3453,3.1131,6.6614,2.8796,14.8535,2.061,21.9835Z" style="fill:#ffde20;"/><path d="m68.9087,39.1052c-.4181-4.9557-.8356-9.9443-4.1019-13.9565-2.0347-2.4994-4.8544-4.9259-7.9219-6.4927-8.8047-5.8494-22.3496-2.8158-31.8268,4.1221-6.3555,2.2529-10.4609,8.7086-11.3511,15.3088-.231,1.4929-.2871,2.9436-.1875,4.3457-1.1177,22.6949,32.6011,40.3713,49.2661,21.2769,2.2222-3.6353,3.584-7.1621,4.2188-10.5267,2.5312-4.7056,2.9806-9.5665,1.9042-14.0775Z" style="fill:#ff7e00;"/><g id="b"><path d="m650.9362,33.9669c-3.2598,0-6.3397,1.3169-8.5633,3.5836v-11.3122h-4.4615v33.3896h4.4615v-2.9576c2.1948,2.2596,5.2243,3.5261,8.5633,3.5261,7.5199,0,13.4134-5.7784,13.4134-13.1544s-5.8936-13.068-13.4134-13.068v-.0072Zm0,22.0631c-4.8142,0-8.736-3.9938-8.736-8.9087s3.9003-8.9951,8.6928-8.9951c5.2099,0,8.9951,3.7995,8.9951,9.0382s-3.8499,8.8655-8.9519,8.8655Zm35.6924-4.6199c-1.2809,2.7849-4.2601,4.6199-7.5918,4.6199-4.001,0-7.7213-3.2454-8.3546-7.1097h21.4226v-.7196c0-.1367.0072-.2663.0216-.403.0144-.1655.0216-.3382.0216-.5037,0-7.2248-6.0015-13.3271-13.1112-13.3271s-12.9817,6.0231-12.9817,13.1544,5.8432,13.068,13.0248,13.068c5.4834,0,10.4271-3.5261,12.2908-8.7648l-4.7494-.0144h.0072Zm-15.8529-6.6491c1.0146-3.9434,4.3104-6.6348,8.2683-6.6348s7.3112,2.6338,8.3834,6.6348h-16.6516Zm46.2202-10.1896h-.7196v2.8856c-2.1084-2.238-5.138-3.4901-8.5633-3.4901-7.5199,0-13.4134,5.7424-13.4134,13.068s5.8936,13.1544,13.4134,13.1544c3.339,0,6.4189-1.2809,8.5633-3.4973v2.936h4.4615v-25.0566h-3.7419Zm-9.2829,21.4586c-5.102,0-8.9519-3.8139-8.9519-8.8655s3.8283-9.0382,8.9087-9.0382,8.7792,4.037,8.7792,8.9951-3.9218,8.9087-8.736,8.9087Zm43.1762-22.0631c-3.2526,0-5.9079,1.3313-7.9228,3.965-1.8494-2.5618-4.6343-3.965-7.966-3.965-2.238,0-4.2313.7412-5.7137,2.0797v-1.4752h-4.4615v25.0566h4.4615v-14.536c0-4.4256,2.0797-6.9658,5.7137-6.9658s5.7137,2.5402,5.7137,6.9658v14.536h4.4616v-14.4928c0-4.3896,2.1372-7.0089,5.7137-7.0089s5.7137,2.5258,5.7137,6.9226v14.5792h4.4616v-14.8814c0-6.4477-4.0873-10.7797-10.1752-10.7797ZM583.6388,1.4696c-14.2194,0-26.6541,7.6062-33.4688,18.9688l5.3611-.6548c2.166-.6764,4.3608-1.2017,6.6132-1.5256,1.3025-2.7273,2.202-5.1812,3.5692-7.3256,1.6767-2.6266,3.7347-2.6913,6.0735-.6045.3094.2734.6764.5181.8995.8563,2.0725,3.1735,5.2747,4.3248,8.7648,5.066,3.0151.6404,5.2243,2.0797,7.5415,4.5551.3742.403,1.0578.7052,1.6479.9067,4.3752,1.504,8.7504,3.0079,13.1544,4.4256,1.137.367,1.5975,1.0074,1.7774,2.1228.5181,3.2886-.6261,5.9655-3.0079,8.1387-2.9144,2.6625-6.5052,4.0586-10.1824,5.2963,0,0-14.2698,3.6196-18.1916,6.4261-8.4122,6.0159-12.9673,14.4568-15.4139,22.3725,1.8926,1.5687,3.9434,2.9648,6.1094,4.1593,3.9794-14.6583,17.4-25.4812,33.3033-25.4812,1.3169,0,2.6481.072,3.9506.2231.8779.1007,1.5112.8923,1.4104,1.7702s-.8923,1.5184-1.7702,1.4104c-1.1873-.1367-2.3891-.2015-3.5908-.2015-14.6511,0-26.978,10.1176-30.3745,23.7253,2.7633,1.2233,5.6921,2.1444,8.7432,2.6985,2.2236-9.8874,11.0747-17.2993,21.6313-17.2993,1.3744,0,2.7489.1295,4.0874.3742.8707.1655,1.4464,1.0002,1.2809,1.871-.1625.87-.9995,1.4436-1.8695,1.2812l-.0015-.0003c-1.1442-.2159-2.3243-.3238-3.4973-.3238-8.9375,0-16.443,6.2102-18.4435,14.5432,1.2809.1295,2.5762.1943,3.8859.1943,21.5378,0,39.0025-17.4576,39.0025-38.9953S605.1766,1.4696,583.6388,1.4696Z" style="fill:#212936;"/><path d="m579.2204,22.5972c4.8789,2.8928,5.7352,2.9,7.4551.0288-2.4395-.0072-4.6558-.0144-7.4551-.0288Z" style="fill:#212936;"/></g><path d="m499.431,44.8398h-7.8301v7.7168h-6.0225v-7.7168h-7.792v-6.0225h7.792v-7.7178h6.0225v7.7178h7.8301v6.0225Z" style="fill:#241f20;"/></svg>